{
 "cells": [
  {
   "cell_type": "code",
   "execution_count": 1,
   "id": "brutal-eight",
   "metadata": {
    "execution": {
     "iopub.execute_input": "2021-05-23T01:39:14.374022Z",
     "iopub.status.busy": "2021-05-23T01:39:14.372291Z",
     "iopub.status.idle": "2021-05-23T01:39:25.531355Z",
     "shell.execute_reply": "2021-05-23T01:39:25.530501Z",
     "shell.execute_reply.started": "2021-05-23T01:32:43.981357Z"
    },
    "papermill": {
     "duration": 11.171628,
     "end_time": "2021-05-23T01:39:25.531531",
     "exception": false,
     "start_time": "2021-05-23T01:39:14.359903",
     "status": "completed"
    },
    "tags": []
   },
   "outputs": [
    {
     "name": "stdout",
     "output_type": "stream",
     "text": [
      "Collecting deepspeech\r\n",
      "  Downloading deepspeech-0.9.3-cp37-cp37m-manylinux1_x86_64.whl (9.2 MB)\r\n",
      "\u001b[K     |████████████████████████████████| 9.2 MB 7.3 MB/s \r\n",
      "\u001b[?25hRequirement already satisfied: numpy>=1.14.5 in /opt/conda/lib/python3.7/site-packages (from deepspeech) (1.19.5)\r\n",
      "Installing collected packages: deepspeech\r\n",
      "Successfully installed deepspeech-0.9.3\r\n"
     ]
    }
   ],
   "source": [
    "!pip install deepspeech"
   ]
  },
  {
   "cell_type": "code",
   "execution_count": 2,
   "id": "silver-combining",
   "metadata": {
    "execution": {
     "iopub.execute_input": "2021-05-23T01:39:25.573544Z",
     "iopub.status.busy": "2021-05-23T01:39:25.572360Z",
     "iopub.status.idle": "2021-05-23T03:58:14.637267Z",
     "shell.execute_reply": "2021-05-23T03:58:14.634952Z"
    },
    "papermill": {
     "duration": 8329.090778,
     "end_time": "2021-05-23T03:58:14.637572",
     "exception": false,
     "start_time": "2021-05-23T01:39:25.546794",
     "status": "completed"
    },
    "tags": []
   },
   "outputs": [
    {
     "name": "stdout",
     "output_type": "stream",
     "text": [
      "Archive:  ../input/wolne-lektury-audio-zip/abuzei-i-tair.zip\r\n",
      " extracting: ignacy-krasicki-bajki-i-przypowiesci-abuzei-i-tair.mp3  \r\n",
      "ffmpeg version 4.3.1 Copyright (c) 2000-2020 the FFmpeg developers\r\n",
      "  built with gcc 9.3.0 (crosstool-NG 1.24.0.133_b0863d8_dirty)\r\n",
      "  configuration: --prefix=/opt/conda --cc=/home/conda/feedstock_root/build_artifacts/ffmpeg_1609680890771/_build_env/bin/x86_64-conda-linux-gnu-cc --disable-doc --disable-openssl --enable-avresample --enable-gnutls --enable-gpl --enable-hardcoded-tables --enable-libfreetype --enable-libopenh264 --enable-libx264 --enable-pic --enable-pthreads --enable-shared --enable-static --enable-version3 --enable-zlib --enable-libmp3lame --pkg-config=/home/conda/feedstock_root/build_artifacts/ffmpeg_1609680890771/_build_env/bin/pkg-config\r\n",
      "  libavutil      56. 51.100 / 56. 51.100\r\n",
      "  libavcodec     58. 91.100 / 58. 91.100\r\n",
      "  libavformat    58. 45.100 / 58. 45.100\r\n",
      "  libavdevice    58. 10.100 / 58. 10.100\r\n",
      "  libavfilter     7. 85.100 /  7. 85.100\r\n",
      "  libavresample   4.  0.  0 /  4.  0.  0\r\n",
      "  libswscale      5.  7.100 /  5.  7.100\r\n",
      "  libswresample   3.  7.100 /  3.  7.100\r\n",
      "  libpostproc    55.  7.100 / 55.  7.100\r\n",
      "\u001b[0;33mUnknown attached picture mimetype: ('image/png', None), skipping.\r\n",
      "\u001b[0m\u001b[0;35m[mp3 @ 0x557e4892df80] \u001b[0m\u001b[0;33mEstimating duration from bitrate, this may be inaccurate\r\n",
      "\u001b[0mInput #0, mp3, from 'ignacy-krasicki-bajki-i-przypowiesci-abuzei-i-tair.mp3':\r\n",
      "  Metadata:\r\n",
      "    title           : Ignacy Krasicki, Bajki i przypowieści, Abuzei i Tair\r\n",
      "    artist          : Bartosz Mazur\r\n",
      "    album           : Wolne Lektury\r\n",
      "    date            : 2010\r\n",
      "    genre           : Speech\r\n",
      "    copyright       : 2010 Fundacja Nowoczesna Polska. Licensed to the public under http://creativecommons.org/licenses/by-sa/3.0/deed.pl verify at http://www.wolnelektury.pl/katalog/lektura/abuzei-i-tair/\r\n",
      "    comment         : Audiobook nagrany w ramach projektu Remiksujemy bibliotekę.\r\n",
      "                    : \r\n",
      "                    : Przekaż 1% podatku na rozwój Wolnych Lektur:\r\n",
      "                    : Fundacja Nowoczesna Polska\r\n",
      "                    : KRS 0000070056\r\n",
      "                    : http://nowoczesnapolska.org.pl/wesprzyj_nas/\r\n",
      "                    : \r\n",
      "    publisher       : Fundacja Nowoczesna Polska\r\n",
      "    performer       : Marcin Cisło\r\n",
      "    album_artist    : Fundacja Nowoczesna Polska\r\n",
      "    encoder         : Lavf52.87.1\r\n",
      "    id3v2_priv.wolnelektury.pl?funded_by: \r\n",
      "    id3v2_priv.wolnelektury.pl?project: Remiksujemy bibliotek\\xc4\\x99\r\n",
      "    id3v2_priv.wolnelektury.pl?flac_sha1: 66db29748ebefe975e4db11f2580f19713dbe576\r\n",
      "  Duration: 00:00:41.95, start: 0.000000, bitrate: 67 kb/s\r\n",
      "    Stream #0:0: Audio: mp3, 44100 Hz, mono, fltp, 64 kb/s\r\n",
      "Stream mapping:\r\n",
      "  Stream #0:0 -> #0:0 (mp3 (mp3float) -> pcm_s16le (native))\r\n",
      "Press [q] to stop, [?] for help\r\n",
      "Output #0, wav, to 'ignacy-krasicki-bajki-i-przypowiesci-abuzei-i-tair.wav':\r\n",
      "  Metadata:\r\n",
      "    INAM            : Ignacy Krasicki, Bajki i przypowieści, Abuzei i Tair\r\n",
      "    IART            : Bartosz Mazur\r\n",
      "    IPRD            : Wolne Lektury\r\n",
      "    ICRD            : 2010\r\n",
      "    IGNR            : Speech\r\n",
      "    ICOP            : 2010 Fundacja Nowoczesna Polska. Licensed to the public under http://creativecommons.org/licenses/by-sa/3.0/deed.pl verify at http://www.wolnelektury.pl/katalog/lektura/abuzei-i-tair/\r\n",
      "    ICMT            : Audiobook nagrany w ramach projektu Remiksujemy bibliotekę.\r\n",
      "                    : \r\n",
      "                    : Przekaż 1% podatku na rozwój Wolnych Lektur:\r\n",
      "                    : Fundacja Nowoczesna Polska\r\n",
      "                    : KRS 0000070056\r\n",
      "                    : http://nowoczesnapolska.org.pl/wesprzyj_nas/\r\n",
      "                    : \r\n",
      "    publisher       : Fundacja Nowoczesna Polska\r\n",
      "    performer       : Marcin Cisło\r\n",
      "    album_artist    : Fundacja Nowoczesna Polska\r\n",
      "    ILNG            : pol\r\n",
      "    id3v2_priv.wolnelektury.pl?flac_sha1: 66db29748ebefe975e4db11f2580f19713dbe576\r\n",
      "    id3v2_priv.wolnelektury.pl?funded_by: \r\n",
      "    id3v2_priv.wolnelektury.pl?project: Remiksujemy bibliotek\\xc4\\x99\r\n",
      "    ISFT            : Lavf58.45.100\r\n",
      "    Stream #0:0: Audio: pcm_s16le ([1][0][0][0] / 0x0001), 16000 Hz, mono, s16, 256 kb/s\r\n",
      "    Metadata:\r\n",
      "      encoder         : Lavc58.91.100 pcm_s16le\r\n",
      "size=    1312kB time=00:00:41.95 bitrate= 256.1kbits/s speed= 594x    \r\n",
      "video:0kB audio:1311kB subtitle:0kB other streams:0kB global headers:0kB muxing overhead: 0.046481%\r\n",
      "Loading model from file ../input/polish-deepspeech-models/output_graph_pl.pbmm\r\n",
      "TensorFlow: v2.3.0-6-g23ad988\r\n",
      "DeepSpeech: v0.9.3-0-gf2e9c85\r\n",
      "2021-05-23 01:39:26.917987: I tensorflow/core/platform/cpu_feature_guard.cc:142] This TensorFlow binary is optimized with oneAPI Deep Neural Network Library (oneDNN)to use the following CPU instructions in performance-critical operations:  AVX2 FMA\r\n",
      "To enable them in other operations, rebuild TensorFlow with the appropriate compiler flags.\r\n",
      "Loaded model in 0.0226s.\r\n",
      "Loading scorer from files ../input/polish-deepspeech-models/kenlm_pl.scorer\r\n",
      "Loaded scorer in 0.0276s.\r\n",
      "Running inference.\r\n",
      "Inference took 31.245s for 41.953s audio file.\r\n",
      "Archive:  ../input/wolne-lektury-audio-zip/akslop.zip\r\n",
      " extracting: milosz-biedrzycki-akslop.mp3  \r\n",
      "ffmpeg version 4.3.1 Copyright (c) 2000-2020 the FFmpeg developers\r\n",
      "  built with gcc 9.3.0 (crosstool-NG 1.24.0.133_b0863d8_dirty)\r\n",
      "  configuration: --prefix=/opt/conda --cc=/home/conda/feedstock_root/build_artifacts/ffmpeg_1609680890771/_build_env/bin/x86_64-conda-linux-gnu-cc --disable-doc --disable-openssl --enable-avresample --enable-gnutls --enable-gpl --enable-hardcoded-tables --enable-libfreetype --enable-libopenh264 --enable-libx264 --enable-pic --enable-pthreads --enable-shared --enable-static --enable-version3 --enable-zlib --enable-libmp3lame --pkg-config=/home/conda/feedstock_root/build_artifacts/ffmpeg_1609680890771/_build_env/bin/pkg-config\r\n",
      "  libavutil      56. 51.100 / 56. 51.100\r\n",
      "  libavcodec     58. 91.100 / 58. 91.100\r\n",
      "  libavformat    58. 45.100 / 58. 45.100\r\n",
      "  libavdevice    58. 10.100 / 58. 10.100\r\n",
      "  libavfilter     7. 85.100 /  7. 85.100\r\n",
      "  libavresample   4.  0.  0 /  4.  0.  0\r\n",
      "  libswscale      5.  7.100 /  5.  7.100\r\n",
      "  libswresample   3.  7.100 /  3.  7.100\r\n",
      "  libpostproc    55.  7.100 / 55.  7.100\r\n",
      "\u001b[0;33mUnknown attached picture mimetype: ('image/png', None), skipping.\r\n",
      "\u001b[0m\u001b[0;35m[mp3 @ 0x55edc0149f80] \u001b[0m\u001b[0;33mEstimating duration from bitrate, this may be inaccurate\r\n",
      "\u001b[0mInput #0, mp3, from 'milosz-biedrzycki-akslop.mp3':\r\n",
      "  Metadata:\r\n",
      "    title           : Miłosz Biedrzycki, Akslop\r\n",
      "    artist          : Wiktor Korzeniewski\r\n",
      "    album           : Wolne Lektury\r\n",
      "    date            : 2010\r\n",
      "    genre           : Speech\r\n",
      "    copyright       : 2010 Fundacja Nowoczesna Polska. Licensed to the public under http://creativecommons.org/licenses/by-sa/3.0/deed.pl verify at http://www.wolnelektury.pl/katalog/lektura/akslop/\r\n",
      "    comment         : Audiobook nagrany w ramach projektu Audiobooki lektur szkolnych dla Polonii finansowanego przez Senat RP.\r\n",
      "                    : \r\n",
      "                    : Przekaż 1% podatku na rozwój Wolnych Lektur:\r\n",
      "                    : Fundacja Nowoczesna Polska\r\n",
      "                    : KRS 0000070056\r\n",
      "                    : http://nowoczesnapolska.org.pl/wesprzyj_nas/\r\n",
      "                    : \r\n",
      "    publisher       : Fundacja Nowoczesna Polska\r\n",
      "    performer       : Marcin Cisło\r\n",
      "    album_artist    : Fundacja Nowoczesna Polska\r\n",
      "    encoder         : Lavf52.87.1\r\n",
      "    id3v2_priv.wolnelektury.pl?funded_by: Senat RP\r\n",
      "    id3v2_priv.wolnelektury.pl?project: Audiobooki lektur szkolnych dla Polonii\r\n",
      "    id3v2_priv.wolnelektury.pl?flac_sha1: a10440b599638046681e166e407f56424a6299a1\r\n",
      "  Duration: 00:00:45.17, start: 0.000000, bitrate: 67 kb/s\r\n",
      "    Stream #0:0: Audio: mp3, 44100 Hz, mono, fltp, 64 kb/s\r\n",
      "Stream mapping:\r\n",
      "  Stream #0:0 -> #0:0 (mp3 (mp3float) -> pcm_s16le (native))\r\n",
      "Press [q] to stop, [?] for help\r\n",
      "Output #0, wav, to 'milosz-biedrzycki-akslop.wav':\r\n",
      "  Metadata:\r\n",
      "    INAM            : Miłosz Biedrzycki, Akslop\r\n",
      "    IART            : Wiktor Korzeniewski\r\n",
      "    IPRD            : Wolne Lektury\r\n",
      "    ICRD            : 2010\r\n",
      "    IGNR            : Speech\r\n",
      "    ICOP            : 2010 Fundacja Nowoczesna Polska. Licensed to the public under http://creativecommons.org/licenses/by-sa/3.0/deed.pl verify at http://www.wolnelektury.pl/katalog/lektura/akslop/\r\n",
      "    ICMT            : Audiobook nagrany w ramach projektu Audiobooki lektur szkolnych dla Polonii finansowanego przez Senat RP.\r\n",
      "                    : \r\n",
      "                    : Przekaż 1% podatku na rozwój Wolnych Lektur:\r\n",
      "                    : Fundacja Nowoczesna Polska\r\n",
      "                    : KRS 0000070056\r\n",
      "                    : http://nowoczesnapolska.org.pl/wesprzyj_nas/\r\n",
      "                    : \r\n",
      "    publisher       : Fundacja Nowoczesna Polska\r\n",
      "    performer       : Marcin Cisło\r\n",
      "    album_artist    : Fundacja Nowoczesna Polska\r\n",
      "    ILNG            : pol\r\n",
      "    id3v2_priv.wolnelektury.pl?flac_sha1: a10440b599638046681e166e407f56424a6299a1\r\n",
      "    id3v2_priv.wolnelektury.pl?funded_by: Senat RP\r\n",
      "    id3v2_priv.wolnelektury.pl?project: Audiobooki lektur szkolnych dla Polonii\r\n",
      "    ISFT            : Lavf58.45.100\r\n",
      "    Stream #0:0: Audio: pcm_s16le ([1][0][0][0] / 0x0001), 16000 Hz, mono, s16, 256 kb/s\r\n",
      "    Metadata:\r\n",
      "      encoder         : Lavc58.91.100 pcm_s16le\r\n",
      "size=    1412kB time=00:00:45.16 bitrate= 256.1kbits/s speed= 705x    \r\n",
      "video:0kB audio:1411kB subtitle:0kB other streams:0kB global headers:0kB muxing overhead: 0.044420%\r\n",
      "Loading model from file ../input/polish-deepspeech-models/output_graph_pl.pbmm\r\n",
      "TensorFlow: v2.3.0-6-g23ad988\r\n",
      "DeepSpeech: v0.9.3-0-gf2e9c85\r\n",
      "2021-05-23 01:39:58.613852: I tensorflow/core/platform/cpu_feature_guard.cc:142] This TensorFlow binary is optimized with oneAPI Deep Neural Network Library (oneDNN)to use the following CPU instructions in performance-critical operations:  AVX2 FMA\r\n",
      "To enable them in other operations, rebuild TensorFlow with the appropriate compiler flags.\r\n",
      "Loaded model in 0.0142s.\r\n",
      "Loading scorer from files ../input/polish-deepspeech-models/kenlm_pl.scorer\r\n",
      "Loaded scorer in 0.00276s.\r\n",
      "Running inference.\r\n",
      "Inference took 30.123s for 45.166s audio file.\r\n",
      "Archive:  ../input/wolne-lektury-audio-zip/andersen-motylek.zip\r\n",
      " extracting: motylek.mp3             \r\n",
      "ffmpeg version 4.3.1 Copyright (c) 2000-2020 the FFmpeg developers\r\n",
      "  built with gcc 9.3.0 (crosstool-NG 1.24.0.133_b0863d8_dirty)\r\n",
      "  configuration: --prefix=/opt/conda --cc=/home/conda/feedstock_root/build_artifacts/ffmpeg_1609680890771/_build_env/bin/x86_64-conda-linux-gnu-cc --disable-doc --disable-openssl --enable-avresample --enable-gnutls --enable-gpl --enable-hardcoded-tables --enable-libfreetype --enable-libopenh264 --enable-libx264 --enable-pic --enable-pthreads --enable-shared --enable-static --enable-version3 --enable-zlib --enable-libmp3lame --pkg-config=/home/conda/feedstock_root/build_artifacts/ffmpeg_1609680890771/_build_env/bin/pkg-config\r\n",
      "  libavutil      56. 51.100 / 56. 51.100\r\n",
      "  libavcodec     58. 91.100 / 58. 91.100\r\n",
      "  libavformat    58. 45.100 / 58. 45.100\r\n",
      "  libavdevice    58. 10.100 / 58. 10.100\r\n",
      "  libavfilter     7. 85.100 /  7. 85.100\r\n",
      "  libavresample   4.  0.  0 /  4.  0.  0\r\n",
      "  libswscale      5.  7.100 /  5.  7.100\r\n",
      "  libswresample   3.  7.100 /  3.  7.100\r\n",
      "  libpostproc    55.  7.100 / 55.  7.100\r\n",
      "\u001b[0;33mUnknown attached picture mimetype: ('image/png', None), skipping.\r\n",
      "\u001b[0mInput #0, mp3, from 'motylek.mp3':\r\n",
      "  Metadata:\r\n",
      "    title           : Motylek\r\n",
      "    artist          : Mariusz Rzepka\r\n",
      "    album           : Wolne Lektury\r\n",
      "    date            : 0011-05-2020\r\n",
      "    genre           : Speech\r\n",
      "    encoder         : Lavf57.56.101\r\n",
      "    performer       : Mariusz Rzepka\r\n",
      "    time_reference  : 78379930\r\n",
      "    encoded_by      : iZotope RX 7 Audio Editor\r\n",
      "    album_artist    : Fundacja Nowoczesna Polska\r\n",
      "    publisher       : Fundacja Nowoczesna Polska\r\n",
      "    originator_reference: USIZTC02T4HZ3HX87195436076624924\r\n",
      "    umid            : 0x060A2B340101010501010F1013000000A39C41ADE66080005E8C5D83A6992EB4\r\n",
      "    copyright       : 11.05.2020 Fundacja Nowoczesna Polska. Licensed to the public under http://artlibre.org/licence/lal/pl/ verify at https://wolnelektury.pl/katalog/lektura/andersen-motylek/\r\n",
      "    comment         : Audiobook nagrany w ramach projektu \"Czyta: #TataMariusz\" i udostępniony na stronie  https://tatamariusz.pl.\r\n",
      "                    : \r\n",
      "                    : Przekaż 1% podatku na rozwój Wolnych Lektur:\r\n",
      "                    : Fundacja Nowoczesna Polska\r\n",
      "                    : KRS 0000070056\r\n",
      "                    : http://nowoczesnapolska.org.pl/wesprzyj_nas/\r\n",
      "                    : \r\n",
      "    id3v2_priv.wolnelektury.pl?flac_sha1: e611918184e79a78d67e3df6a0ca22c3af1384cc\r\n",
      "    id3v2_priv.wolnelektury.pl?project: #TataMariusz\r\n",
      "  Duration: 00:06:15.01, start: 0.025057, bitrate: 64 kb/s\r\n",
      "    Stream #0:0: Audio: mp3, 44100 Hz, mono, fltp, 64 kb/s\r\n",
      "Stream mapping:\r\n",
      "  Stream #0:0 -> #0:0 (mp3 (mp3float) -> pcm_s16le (native))\r\n",
      "Press [q] to stop, [?] for help\r\n",
      "Output #0, wav, to 'motylek.wav':\r\n",
      "  Metadata:\r\n",
      "    INAM            : Motylek\r\n",
      "    IART            : Mariusz Rzepka\r\n",
      "    IPRD            : Wolne Lektury\r\n",
      "    ICRD            : 0011-05-2020\r\n",
      "    IGNR            : Speech\r\n",
      "    ILNG            : pol\r\n",
      "    id3v2_priv.wolnelektury.pl?project: #TataMariusz\r\n",
      "    performer       : Mariusz Rzepka\r\n",
      "    time_reference  : 78379930\r\n",
      "    ITCH            : iZotope RX 7 Audio Editor\r\n",
      "    album_artist    : Fundacja Nowoczesna Polska\r\n",
      "    publisher       : Fundacja Nowoczesna Polska\r\n",
      "    originator_reference: USIZTC02T4HZ3HX87195436076624924\r\n",
      "    umid            : 0x060A2B340101010501010F1013000000A39C41ADE66080005E8C5D83A6992EB4\r\n",
      "    ICOP            : 11.05.2020 Fundacja Nowoczesna Polska. Licensed to the public under http://artlibre.org/licence/lal/pl/ verify at https://wolnelektury.pl/katalog/lektura/andersen-motylek/\r\n",
      "    ICMT            : Audiobook nagrany w ramach projektu \"Czyta: #TataMariusz\" i udostępniony na stronie  https://tatamariusz.pl.\r\n",
      "                    : \r\n",
      "                    : Przekaż 1% podatku na rozwój Wolnych Lektur:\r\n",
      "                    : Fundacja Nowoczesna Polska\r\n",
      "                    : KRS 0000070056\r\n",
      "                    : http://nowoczesnapolska.org.pl/wesprzyj_nas/\r\n",
      "                    : \r\n",
      "    id3v2_priv.wolnelektury.pl?flac_sha1: e611918184e79a78d67e3df6a0ca22c3af1384cc\r\n",
      "    ISFT            : Lavf58.45.100\r\n",
      "    Stream #0:0: Audio: pcm_s16le ([1][0][0][0] / 0x0001), 16000 Hz, mono, s16, 256 kb/s\r\n",
      "    Metadata:\r\n",
      "      encoder         : Lavc58.91.100 pcm_s16le\r\n",
      "size=   11718kB time=00:06:14.96 bitrate= 256.0kbits/s speed= 787x    \r\n",
      "video:0kB audio:11718kB subtitle:0kB other streams:0kB global headers:0kB muxing overhead: 0.005484%\r\n",
      "Loading model from file ../input/polish-deepspeech-models/output_graph_pl.pbmm\r\n",
      "TensorFlow: v2.3.0-6-g23ad988\r\n",
      "DeepSpeech: v0.9.3-0-gf2e9c85\r\n",
      "2021-05-23 01:40:29.604275: I tensorflow/core/platform/cpu_feature_guard.cc:142] This TensorFlow binary is optimized with oneAPI Deep Neural Network Library (oneDNN)to use the following CPU instructions in performance-critical operations:  AVX2 FMA\r\n",
      "To enable them in other operations, rebuild TensorFlow with the appropriate compiler flags.\r\n",
      "Loaded model in 0.0161s.\r\n",
      "Loading scorer from files ../input/polish-deepspeech-models/kenlm_pl.scorer\r\n",
      "Loaded scorer in 0.00365s.\r\n",
      "Running inference.\r\n",
      "Inference took 298.004s for 374.969s audio file.\r\n",
      "Archive:  ../input/wolne-lektury-audio-zip/aniol-pasterzom-mowil.zip\r\n",
      " extracting: autor-nieznany-aniol-pasterzom-mowil.mp3  \r\n",
      "ffmpeg version 4.3.1 Copyright (c) 2000-2020 the FFmpeg developers\r\n",
      "  built with gcc 9.3.0 (crosstool-NG 1.24.0.133_b0863d8_dirty)\r\n",
      "  configuration: --prefix=/opt/conda --cc=/home/conda/feedstock_root/build_artifacts/ffmpeg_1609680890771/_build_env/bin/x86_64-conda-linux-gnu-cc --disable-doc --disable-openssl --enable-avresample --enable-gnutls --enable-gpl --enable-hardcoded-tables --enable-libfreetype --enable-libopenh264 --enable-libx264 --enable-pic --enable-pthreads --enable-shared --enable-static --enable-version3 --enable-zlib --enable-libmp3lame --pkg-config=/home/conda/feedstock_root/build_artifacts/ffmpeg_1609680890771/_build_env/bin/pkg-config\r\n",
      "  libavutil      56. 51.100 / 56. 51.100\r\n",
      "  libavcodec     58. 91.100 / 58. 91.100\r\n",
      "  libavformat    58. 45.100 / 58. 45.100\r\n",
      "  libavdevice    58. 10.100 / 58. 10.100\r\n",
      "  libavfilter     7. 85.100 /  7. 85.100\r\n",
      "  libavresample   4.  0.  0 /  4.  0.  0\r\n",
      "  libswscale      5.  7.100 /  5.  7.100\r\n",
      "  libswresample   3.  7.100 /  3.  7.100\r\n",
      "  libpostproc    55.  7.100 / 55.  7.100\r\n",
      "\u001b[0;33mUnknown attached picture mimetype: ('image/png', None), skipping.\r\n",
      "\u001b[0mInput #0, mp3, from 'autor-nieznany-aniol-pasterzom-mowil.mp3':\r\n",
      "  Metadata:\r\n",
      "    title           : Anioł pasterzom mówił\r\n",
      "    artist          : Studio Accantus\r\n",
      "    track           : 2\r\n",
      "    album           : Wolne Lektury\r\n",
      "    disc            : 1\r\n",
      "    URL             : www.accantus.info/koledy\r\n",
      "    genre           : Speech\r\n",
      "    ENCODER SETTINGS: -compression-level-5\r\n",
      "    comment         : Audiobook nagrany w ramach projektu Kolędy polskie finansowanego przez Stowarzyszenie Wikimedia Polska. Kolęda polska w wykonaniu artystów Studia Accantus powstała we współpracy ze Stowarzyszeniem Wikimedia Polska.\r\n",
      "                    : \r\n",
      "                    : Przekaż 1% podatku na rozwój Wolnych Lektur:\r\n",
      "                    : Fundacja Nowoczesna Polska\r\n",
      "                    : KRS 0000070056\r\n",
      "                    : http://nowoczesnapolska.org.pl/wesprzyj_nas/\r\n",
      "                    : \r\n",
      "    encoder         : Lavf53.21.1\r\n",
      "    date            : 2014\r\n",
      "    TRACKTOTAL      : 14\r\n",
      "    album_artist    : Fundacja Nowoczesna Polska\r\n",
      "    performer       : Bartłomiej Kozielski - Studio Accantus\r\n",
      "    copyright       : 2014 Fundacja Nowoczesna Polska. Licensed to the public under http://creativecommons.org/licenses/by-sa/3.0/deed.pl verify at http://wolnelektury.pl/katalog/lektura/aniol-pasterzom-mowil\r\n",
      "    ACCURATERIPDISCID: 014-00178998-00fc1395-c90ad70e-2\r\n",
      "    ACCURATERIPRESULT: AccurateRip: Not in database   [1C21FAEA]\r\n",
      "    SOURCE          : CD (Lossless)\r\n",
      "    DISCTOTAL       : 1\r\n",
      "    ENCODED BY      : dBpoweramp Release 14.4\r\n",
      "    publisher       : Fundacja Nowoczesna Polska\r\n",
      "    LOCATION        : www.accantus.info/koledy\r\n",
      "    id3v2_priv.wolnelektury.pl?flac_sha1: b65939cf7c7720875ea23fc57be4d0be4588a595\r\n",
      "    id3v2_priv.wolnelektury.pl?funded_by: Stowarzyszenie Wikimedia Polska. Kol\\xc4\\x99da polska w wykonaniu artyst\\xc3\\xb3w Studia Accantus powsta\\xc5\\x82a we wsp\\xc3\\xb3\\xc5\\x82pracy ze Stowarzyszeniem Wikimedia Polska\r\n",
      "    id3v2_priv.wolnelektury.pl?project: Kol\\xc4\\x99dy polskie\r\n",
      "  Duration: 00:03:11.09, start: 0.000000, bitrate: 64 kb/s\r\n",
      "    Stream #0:0: Audio: mp3, 44100 Hz, mono, fltp, 64 kb/s\r\n",
      "Stream mapping:\r\n",
      "  Stream #0:0 -> #0:0 (mp3 (mp3float) -> pcm_s16le (native))\r\n",
      "Press [q] to stop, [?] for help\r\n",
      "Output #0, wav, to 'autor-nieznany-aniol-pasterzom-mowil.wav':\r\n",
      "  Metadata:\r\n",
      "    INAM            : Anioł pasterzom mówił\r\n",
      "    IART            : Studio Accantus\r\n",
      "    IPRT            : 2\r\n",
      "    IPRD            : Wolne Lektury\r\n",
      "    disc            : 1\r\n",
      "    URL             : www.accantus.info/koledy\r\n",
      "    IGNR            : Speech\r\n",
      "    ENCODER SETTINGS: -compression-level-5\r\n",
      "    ICMT            : Audiobook nagrany w ramach projektu Kolędy polskie finansowanego przez Stowarzyszenie Wikimedia Polska. Kolęda polska w wykonaniu artystów Studia Accantus powstała we współpracy ze Stowarzyszeniem Wikimedia Polska.\r\n",
      "                    : \r\n",
      "                    : Przekaż 1% podatku na rozwój Wolnych Lektur:\r\n",
      "                    : Fundacja Nowoczesna Polska\r\n",
      "                    : KRS 0000070056\r\n",
      "                    : http://nowoczesnapolska.org.pl/wesprzyj_nas/\r\n",
      "                    : \r\n",
      "    id3v2_priv.wolnelektury.pl?project: Kol\\xc4\\x99dy polskie\r\n",
      "    ICRD            : 2014\r\n",
      "    TRACKTOTAL      : 14\r\n",
      "    album_artist    : Fundacja Nowoczesna Polska\r\n",
      "    performer       : Bartłomiej Kozielski - Studio Accantus\r\n",
      "    ICOP            : 2014 Fundacja Nowoczesna Polska. Licensed to the public under http://creativecommons.org/licenses/by-sa/3.0/deed.pl verify at http://wolnelektury.pl/katalog/lektura/aniol-pasterzom-mowil\r\n",
      "    ACCURATERIPDISCID: 014-00178998-00fc1395-c90ad70e-2\r\n",
      "    ACCURATERIPRESULT: AccurateRip: Not in database   [1C21FAEA]\r\n",
      "    SOURCE          : CD (Lossless)\r\n",
      "    DISCTOTAL       : 1\r\n",
      "    ENCODED BY      : dBpoweramp Release 14.4\r\n",
      "    publisher       : Fundacja Nowoczesna Polska\r\n",
      "    LOCATION        : www.accantus.info/koledy\r\n",
      "    ILNG            : pol\r\n",
      "    id3v2_priv.wolnelektury.pl?flac_sha1: b65939cf7c7720875ea23fc57be4d0be4588a595\r\n",
      "    id3v2_priv.wolnelektury.pl?funded_by: Stowarzyszenie Wikimedia Polska. Kol\\xc4\\x99da polska w wykonaniu artyst\\xc3\\xb3w Studia Accantus powsta\\xc5\\x82a we wsp\\xc3\\xb3\\xc5\\x82pracy ze Stowarzyszeniem Wikimedia Polska\r\n",
      "    ISFT            : Lavf58.45.100\r\n",
      "    Stream #0:0: Audio: pcm_s16le ([1][0][0][0] / 0x0001), 16000 Hz, mono, s16, 256 kb/s\r\n",
      "    Metadata:\r\n",
      "      encoder         : Lavc58.91.100 pcm_s16le\r\n",
      "size=    5972kB time=00:03:11.08 bitrate= 256.0kbits/s speed= 793x    \r\n",
      "video:0kB audio:5971kB subtitle:0kB other streams:0kB global headers:0kB muxing overhead: 0.012625%\r\n",
      "Loading model from file ../input/polish-deepspeech-models/output_graph_pl.pbmm\r\n",
      "TensorFlow: v2.3.0-6-g23ad988\r\n",
      "DeepSpeech: v0.9.3-0-gf2e9c85\r\n",
      "2021-05-23 01:45:28.238088: I tensorflow/core/platform/cpu_feature_guard.cc:142] This TensorFlow binary is optimized with oneAPI Deep Neural Network Library (oneDNN)to use the following CPU instructions in performance-critical operations:  AVX2 FMA\r\n",
      "To enable them in other operations, rebuild TensorFlow with the appropriate compiler flags.\r\n",
      "Loaded model in 0.0179s.\r\n",
      "Loading scorer from files ../input/polish-deepspeech-models/kenlm_pl.scorer\r\n",
      "Loaded scorer in 0.00619s.\r\n",
      "Running inference.\r\n",
      "Inference took 128.637s for 191.086s audio file.\r\n",
      "Archive:  ../input/wolne-lektury-audio-zip/aniol.zip\r\n",
      " extracting: aniol.mp3               \r\n",
      "ffmpeg version 4.3.1 Copyright (c) 2000-2020 the FFmpeg developers\r\n",
      "  built with gcc 9.3.0 (crosstool-NG 1.24.0.133_b0863d8_dirty)\r\n",
      "  configuration: --prefix=/opt/conda --cc=/home/conda/feedstock_root/build_artifacts/ffmpeg_1609680890771/_build_env/bin/x86_64-conda-linux-gnu-cc --disable-doc --disable-openssl --enable-avresample --enable-gnutls --enable-gpl --enable-hardcoded-tables --enable-libfreetype --enable-libopenh264 --enable-libx264 --enable-pic --enable-pthreads --enable-shared --enable-static --enable-version3 --enable-zlib --enable-libmp3lame --pkg-config=/home/conda/feedstock_root/build_artifacts/ffmpeg_1609680890771/_build_env/bin/pkg-config\r\n",
      "  libavutil      56. 51.100 / 56. 51.100\r\n",
      "  libavcodec     58. 91.100 / 58. 91.100\r\n",
      "  libavformat    58. 45.100 / 58. 45.100\r\n",
      "  libavdevice    58. 10.100 / 58. 10.100\r\n",
      "  libavfilter     7. 85.100 /  7. 85.100\r\n",
      "  libavresample   4.  0.  0 /  4.  0.  0\r\n",
      "  libswscale      5.  7.100 /  5.  7.100\r\n",
      "  libswresample   3.  7.100 /  3.  7.100\r\n",
      "  libpostproc    55.  7.100 / 55.  7.100\r\n",
      "\u001b[0;33mUnknown attached picture mimetype: ('image/png', None), skipping.\r\n",
      "\u001b[0mInput #0, mp3, from 'aniol.mp3':\r\n",
      "  Metadata:\r\n",
      "    title           : Anioł\r\n",
      "    artist          : Mariusz Rzepka\r\n",
      "    album           : Wolne Lektury\r\n",
      "    date            : 0011-05-2020\r\n",
      "    genre           : Speech\r\n",
      "    encoder         : Lavf57.56.101\r\n",
      "    performer       : Mariusz Rzepka\r\n",
      "    time_reference  : 24170093\r\n",
      "    encoded_by      : iZotope RX 7 Audio Editor\r\n",
      "    album_artist    : Fundacja Nowoczesna Polska\r\n",
      "    publisher       : Fundacja Nowoczesna Polska\r\n",
      "    originator_reference: USIZTC02T4HZ3HX87195437459111350\r\n",
      "    umid            : 0x060A2B340101010501010F101300000092E0AC9DE660800079BC5D83A6992EB4\r\n",
      "    copyright       : 11.05.2020 Fundacja Nowoczesna Polska. Licensed to the public under http://artlibre.org/licence/lal/pl/ verify at https://wolnelektury.pl/katalog/lektura/aniol/\r\n",
      "    comment         : Audiobook nagrany w ramach projektu \"Czyta: #TataMariusz\" i udostępniony na stronie  https://tatamariusz.pl.\r\n",
      "                    : \r\n",
      "                    : Przekaż 1% podatku na rozwój Wolnych Lektur:\r\n",
      "                    : Fundacja Nowoczesna Polska\r\n",
      "                    : KRS 0000070056\r\n",
      "                    : http://nowoczesnapolska.org.pl/wesprzyj_nas/\r\n",
      "                    : \r\n",
      "    id3v2_priv.wolnelektury.pl?flac_sha1: 8590515082f81407cd3e73e00e26c491f530c023\r\n",
      "    id3v2_priv.wolnelektury.pl?project: #TataMariusz\r\n",
      "  Duration: 00:06:40.98, start: 0.025057, bitrate: 64 kb/s\r\n",
      "    Stream #0:0: Audio: mp3, 44100 Hz, mono, fltp, 64 kb/s\r\n",
      "Stream mapping:\r\n",
      "  Stream #0:0 -> #0:0 (mp3 (mp3float) -> pcm_s16le (native))\r\n",
      "Press [q] to stop, [?] for help\r\n",
      "Output #0, wav, to 'aniol.wav':\r\n",
      "  Metadata:\r\n",
      "    INAM            : Anioł\r\n",
      "    IART            : Mariusz Rzepka\r\n",
      "    IPRD            : Wolne Lektury\r\n",
      "    ICRD            : 0011-05-2020\r\n",
      "    IGNR            : Speech\r\n",
      "    ILNG            : pol\r\n",
      "    id3v2_priv.wolnelektury.pl?project: #TataMariusz\r\n",
      "    performer       : Mariusz Rzepka\r\n",
      "    time_reference  : 24170093\r\n",
      "    ITCH            : iZotope RX 7 Audio Editor\r\n",
      "    album_artist    : Fundacja Nowoczesna Polska\r\n",
      "    publisher       : Fundacja Nowoczesna Polska\r\n",
      "    originator_reference: USIZTC02T4HZ3HX87195437459111350\r\n",
      "    umid            : 0x060A2B340101010501010F101300000092E0AC9DE660800079BC5D83A6992EB4\r\n",
      "    ICOP            : 11.05.2020 Fundacja Nowoczesna Polska. Licensed to the public under http://artlibre.org/licence/lal/pl/ verify at https://wolnelektury.pl/katalog/lektura/aniol/\r\n",
      "    ICMT            : Audiobook nagrany w ramach projektu \"Czyta: #TataMariusz\" i udostępniony na stronie  https://tatamariusz.pl.\r\n",
      "                    : \r\n",
      "                    : Przekaż 1% podatku na rozwój Wolnych Lektur:\r\n",
      "                    : Fundacja Nowoczesna Polska\r\n",
      "                    : KRS 0000070056\r\n",
      "                    : http://nowoczesnapolska.org.pl/wesprzyj_nas/\r\n",
      "                    : \r\n",
      "    id3v2_priv.wolnelektury.pl?flac_sha1: 8590515082f81407cd3e73e00e26c491f530c023\r\n",
      "    ISFT            : Lavf58.45.100\r\n",
      "    Stream #0:0: Audio: pcm_s16le ([1][0][0][0] / 0x0001), 16000 Hz, mono, s16, 256 kb/s\r\n",
      "    Metadata:\r\n",
      "      encoder         : Lavc58.91.100 pcm_s16le\r\n",
      "size=   12530kB time=00:06:40.94 bitrate= 256.0kbits/s speed= 773x    \r\n",
      "video:0kB audio:12529kB subtitle:0kB other streams:0kB global headers:0kB muxing overhead: 0.005051%\r\n",
      "Loading model from file ../input/polish-deepspeech-models/output_graph_pl.pbmm\r\n",
      "TensorFlow: v2.3.0-6-g23ad988\r\n",
      "DeepSpeech: v0.9.3-0-gf2e9c85\r\n",
      "2021-05-23 01:47:37.818842: I tensorflow/core/platform/cpu_feature_guard.cc:142] This TensorFlow binary is optimized with oneAPI Deep Neural Network Library (oneDNN)to use the following CPU instructions in performance-critical operations:  AVX2 FMA\r\n",
      "To enable them in other operations, rebuild TensorFlow with the appropriate compiler flags.\r\n",
      "Loaded model in 0.0165s.\r\n",
      "Loading scorer from files ../input/polish-deepspeech-models/kenlm_pl.scorer\r\n",
      "Loaded scorer in 0.00322s.\r\n",
      "Running inference.\r\n",
      "Inference took 317.858s for 400.944s audio file.\r\n",
      "Archive:  ../input/wolne-lektury-audio-zip/antek.zip\r\n",
      " extracting: boleslaw-prus-antek.mp3  \r\n",
      "ffmpeg version 4.3.1 Copyright (c) 2000-2020 the FFmpeg developers\r\n",
      "  built with gcc 9.3.0 (crosstool-NG 1.24.0.133_b0863d8_dirty)\r\n",
      "  configuration: --prefix=/opt/conda --cc=/home/conda/feedstock_root/build_artifacts/ffmpeg_1609680890771/_build_env/bin/x86_64-conda-linux-gnu-cc --disable-doc --disable-openssl --enable-avresample --enable-gnutls --enable-gpl --enable-hardcoded-tables --enable-libfreetype --enable-libopenh264 --enable-libx264 --enable-pic --enable-pthreads --enable-shared --enable-static --enable-version3 --enable-zlib --enable-libmp3lame --pkg-config=/home/conda/feedstock_root/build_artifacts/ffmpeg_1609680890771/_build_env/bin/pkg-config\r\n",
      "  libavutil      56. 51.100 / 56. 51.100\r\n",
      "  libavcodec     58. 91.100 / 58. 91.100\r\n",
      "  libavformat    58. 45.100 / 58. 45.100\r\n",
      "  libavdevice    58. 10.100 / 58. 10.100\r\n",
      "  libavfilter     7. 85.100 /  7. 85.100\r\n",
      "  libavresample   4.  0.  0 /  4.  0.  0\r\n",
      "  libswscale      5.  7.100 /  5.  7.100\r\n",
      "  libswresample   3.  7.100 /  3.  7.100\r\n",
      "  libpostproc    55.  7.100 / 55.  7.100\r\n",
      "\u001b[0;33mUnknown attached picture mimetype: ('image/png', None), skipping.\r\n",
      "\u001b[0m\u001b[0;35m[mp3 @ 0x55a5a64a3f80] \u001b[0m\u001b[0;33mEstimating duration from bitrate, this may be inaccurate\r\n",
      "\u001b[0mInput #0, mp3, from 'boleslaw-prus-antek.mp3':\r\n",
      "  Metadata:\r\n",
      "    title           : Bolesław Prus, Antek\r\n",
      "    artist          : Jan Peszek\r\n",
      "    album           : Wolne Lektury\r\n",
      "    date            : 2009\r\n",
      "    genre           : Speech\r\n",
      "    copyright       : 2009 Fundacja Nowoczesna Polska. Licensed to the public under http://creativecommons.org/licenses/by-sa/3.0/deed.pl verify at http://www.wolnelektury.pl/katalog/lektura/antek/\r\n",
      "    comment         : Audiobook nagrany w ramach projektu Rymy, pętle, rytmy finansowanego przez Akademia Orange.\r\n",
      "                    : \r\n",
      "                    : Przekaż 1% podatku na rozwój Wolnych Lektur:\r\n",
      "                    : Fundacja Nowoczesna Polska\r\n",
      "                    : KRS 0000070056\r\n",
      "                    : http://nowoczesnapolska.org.pl/wesprzyj_nas/\r\n",
      "                    : \r\n",
      "    publisher       : Fundacja Nowoczesna Polska\r\n",
      "    performer       : Marcin Cisło\r\n",
      "    album_artist    : Fundacja Nowoczesna Polska\r\n",
      "    encoder         : Lavf52.87.1\r\n",
      "    id3v2_priv.wolnelektury.pl?flac_sha1: 0db66d83e059b292c04c393e9880e4aa213cc989\r\n",
      "    id3v2_priv.wolnelektury.pl?project: Rymy, p\\xc4\\x99tle, rytmy\r\n",
      "    id3v2_priv.wolnelektury.pl?funded_by: Akademia Orange\r\n",
      "  Duration: 01:02:07.80, start: 0.000000, bitrate: 64 kb/s\r\n",
      "    Stream #0:0: Audio: mp3, 44100 Hz, mono, fltp, 64 kb/s\r\n",
      "Stream mapping:\r\n",
      "  Stream #0:0 -> #0:0 (mp3 (mp3float) -> pcm_s16le (native))\r\n",
      "Press [q] to stop, [?] for help\r\n",
      "Output #0, wav, to 'boleslaw-prus-antek.wav':\r\n",
      "  Metadata:\r\n",
      "    INAM            : Bolesław Prus, Antek\r\n",
      "    IART            : Jan Peszek\r\n",
      "    IPRD            : Wolne Lektury\r\n",
      "    ICRD            : 2009\r\n",
      "    IGNR            : Speech\r\n",
      "    ICOP            : 2009 Fundacja Nowoczesna Polska. Licensed to the public under http://creativecommons.org/licenses/by-sa/3.0/deed.pl verify at http://www.wolnelektury.pl/katalog/lektura/antek/\r\n",
      "    ICMT            : Audiobook nagrany w ramach projektu Rymy, pętle, rytmy finansowanego przez Akademia Orange.\r\n",
      "                    : \r\n",
      "                    : Przekaż 1% podatku na rozwój Wolnych Lektur:\r\n",
      "                    : Fundacja Nowoczesna Polska\r\n",
      "                    : KRS 0000070056\r\n",
      "                    : http://nowoczesnapolska.org.pl/wesprzyj_nas/\r\n",
      "                    : \r\n",
      "    publisher       : Fundacja Nowoczesna Polska\r\n",
      "    performer       : Marcin Cisło\r\n",
      "    album_artist    : Fundacja Nowoczesna Polska\r\n",
      "    ILNG            : pol\r\n",
      "    id3v2_priv.wolnelektury.pl?funded_by: Akademia Orange\r\n",
      "    id3v2_priv.wolnelektury.pl?flac_sha1: 0db66d83e059b292c04c393e9880e4aa213cc989\r\n",
      "    id3v2_priv.wolnelektury.pl?project: Rymy, p\\xc4\\x99tle, rytmy\r\n",
      "    ISFT            : Lavf58.45.100\r\n",
      "    Stream #0:0: Audio: pcm_s16le ([1][0][0][0] / 0x0001), 16000 Hz, mono, s16, 256 kb/s\r\n",
      "    Metadata:\r\n",
      "      encoder         : Lavc58.91.100 pcm_s16le\r\n",
      "size=  116494kB time=01:02:07.80 bitrate= 256.0kbits/s speed= 740x    \r\n",
      "video:0kB audio:116494kB subtitle:0kB other streams:0kB global headers:0kB muxing overhead: 0.000515%\r\n",
      "Loading model from file ../input/polish-deepspeech-models/output_graph_pl.pbmm\r\n",
      "TensorFlow: v2.3.0-6-g23ad988\r\n",
      "DeepSpeech: v0.9.3-0-gf2e9c85\r\n",
      "2021-05-23 01:53:01.639365: I tensorflow/core/platform/cpu_feature_guard.cc:142] This TensorFlow binary is optimized with oneAPI Deep Neural Network Library (oneDNN)to use the following CPU instructions in performance-critical operations:  AVX2 FMA\r\n",
      "To enable them in other operations, rebuild TensorFlow with the appropriate compiler flags.\r\n",
      "Loaded model in 0.0212s.\r\n",
      "Loading scorer from files ../input/polish-deepspeech-models/kenlm_pl.scorer\r\n",
      "Loaded scorer in 0.0065s.\r\n",
      "Running inference.\r\n",
      "Inference took 6817.068s for 3727.804s audio file.\r\n",
      "Archive:  ../input/wolne-lektury-audio-zip/aptekarzowa.zip\r\n",
      " extracting: anton-czechow-aptekarzowa.mp3  \r\n",
      "ffmpeg version 4.3.1 Copyright (c) 2000-2020 the FFmpeg developers\r\n",
      "  built with gcc 9.3.0 (crosstool-NG 1.24.0.133_b0863d8_dirty)\r\n",
      "  configuration: --prefix=/opt/conda --cc=/home/conda/feedstock_root/build_artifacts/ffmpeg_1609680890771/_build_env/bin/x86_64-conda-linux-gnu-cc --disable-doc --disable-openssl --enable-avresample --enable-gnutls --enable-gpl --enable-hardcoded-tables --enable-libfreetype --enable-libopenh264 --enable-libx264 --enable-pic --enable-pthreads --enable-shared --enable-static --enable-version3 --enable-zlib --enable-libmp3lame --pkg-config=/home/conda/feedstock_root/build_artifacts/ffmpeg_1609680890771/_build_env/bin/pkg-config\r\n",
      "  libavutil      56. 51.100 / 56. 51.100\r\n",
      "  libavcodec     58. 91.100 / 58. 91.100\r\n",
      "  libavformat    58. 45.100 / 58. 45.100\r\n",
      "  libavdevice    58. 10.100 / 58. 10.100\r\n",
      "  libavfilter     7. 85.100 /  7. 85.100\r\n",
      "  libavresample   4.  0.  0 /  4.  0.  0\r\n",
      "  libswscale      5.  7.100 /  5.  7.100\r\n",
      "  libswresample   3.  7.100 /  3.  7.100\r\n",
      "  libpostproc    55.  7.100 / 55.  7.100\r\n",
      "\u001b[0;33mUnknown attached picture mimetype: ('image/png', None), skipping.\r\n",
      "\u001b[0m\u001b[0;35m[mp3 @ 0x55a0bf195f80] \u001b[0m\u001b[0;33mEstimating duration from bitrate, this may be inaccurate\r\n",
      "\u001b[0mInput #0, mp3, from 'anton-czechow-aptekarzowa.mp3':\r\n",
      "  Metadata:\r\n",
      "    title           : Anton Czechow, Aptekarzowa (tłum. A. W.)\r\n",
      "    artist          : Wiktor Korzeniewski\r\n",
      "    album           : Wolne Lektury\r\n",
      "    date            : 2010\r\n",
      "    genre           : Speech\r\n",
      "    copyright       : 2010 Fundacja Nowoczesna Polska. Licensed to the public under http://creativecommons.org/licenses/by-sa/3.0/deed.pl verify at http://www.wolnelektury.pl/katalog/lektura/aptekarzowa/\r\n",
      "    comment         : Audiobook nagrany w ramach projektu Słuchamy Polski finansowanego przez Senat RP.\r\n",
      "                    : \r\n",
      "                    : Przekaż 1% podatku na rozwój Wolnych Lektur:\r\n",
      "                    : Fundacja Nowoczesna Polska\r\n",
      "                    : KRS 0000070056\r\n",
      "                    : http://nowoczesnapolska.org.pl/wesprzyj_nas/\r\n",
      "                    : \r\n",
      "    publisher       : Fundacja Nowoczesna Polska\r\n",
      "    performer       : Marcin Cisło\r\n",
      "    album_artist    : Fundacja Nowoczesna Polska\r\n",
      "    encoder         : Lavf52.87.1\r\n",
      "    id3v2_priv.wolnelektury.pl?funded_by: Senat RP\r\n",
      "    id3v2_priv.wolnelektury.pl?flac_sha1: b0074a9fab681070577200f61fdcf43d47f011a9\r\n",
      "    id3v2_priv.wolnelektury.pl?project: S\\xc5\\x82uchamy Polski\r\n",
      "  Duration: 00:13:53.12, start: 0.000000, bitrate: 64 kb/s\r\n",
      "    Stream #0:0: Audio: mp3, 44100 Hz, mono, fltp, 64 kb/s\r\n",
      "Stream mapping:\r\n",
      "  Stream #0:0 -> #0:0 (mp3 (mp3float) -> pcm_s16le (native))\r\n",
      "Press [q] to stop, [?] for help\r\n",
      "Output #0, wav, to 'anton-czechow-aptekarzowa.wav':\r\n",
      "  Metadata:\r\n",
      "    INAM            : Anton Czechow, Aptekarzowa (tłum. A. W.)\r\n",
      "    IART            : Wiktor Korzeniewski\r\n",
      "    IPRD            : Wolne Lektury\r\n",
      "    ICRD            : 2010\r\n",
      "    IGNR            : Speech\r\n",
      "    ICOP            : 2010 Fundacja Nowoczesna Polska. Licensed to the public under http://creativecommons.org/licenses/by-sa/3.0/deed.pl verify at http://www.wolnelektury.pl/katalog/lektura/aptekarzowa/\r\n",
      "    ICMT            : Audiobook nagrany w ramach projektu Słuchamy Polski finansowanego przez Senat RP.\r\n",
      "                    : \r\n",
      "                    : Przekaż 1% podatku na rozwój Wolnych Lektur:\r\n",
      "                    : Fundacja Nowoczesna Polska\r\n",
      "                    : KRS 0000070056\r\n",
      "                    : http://nowoczesnapolska.org.pl/wesprzyj_nas/\r\n",
      "                    : \r\n",
      "    publisher       : Fundacja Nowoczesna Polska\r\n",
      "    performer       : Marcin Cisło\r\n",
      "    album_artist    : Fundacja Nowoczesna Polska\r\n",
      "    ILNG            : pol\r\n",
      "    id3v2_priv.wolnelektury.pl?project: S\\xc5\\x82uchamy Polski\r\n",
      "    id3v2_priv.wolnelektury.pl?funded_by: Senat RP\r\n",
      "    id3v2_priv.wolnelektury.pl?flac_sha1: b0074a9fab681070577200f61fdcf43d47f011a9\r\n",
      "    ISFT            : Lavf58.45.100\r\n",
      "    Stream #0:0: Audio: pcm_s16le ([1][0][0][0] / 0x0001), 16000 Hz, mono, s16, 256 kb/s\r\n",
      "    Metadata:\r\n",
      "      encoder         : Lavc58.91.100 pcm_s16le\r\n",
      "size=   26036kB time=00:13:53.12 bitrate= 256.0kbits/s speed= 751x    \r\n",
      "video:0kB audio:26035kB subtitle:0kB other streams:0kB global headers:0kB muxing overhead: 0.002393%\r\n",
      "Loading model from file ../input/polish-deepspeech-models/output_graph_pl.pbmm\r\n",
      "TensorFlow: v2.3.0-6-g23ad988\r\n",
      "DeepSpeech: v0.9.3-0-gf2e9c85\r\n",
      "2021-05-23 03:46:40.738453: I tensorflow/core/platform/cpu_feature_guard.cc:142] This TensorFlow binary is optimized with oneAPI Deep Neural Network Library (oneDNN)to use the following CPU instructions in performance-critical operations:  AVX2 FMA\r\n",
      "To enable them in other operations, rebuild TensorFlow with the appropriate compiler flags.\r\n",
      "Loaded model in 0.0182s.\r\n",
      "Loading scorer from files ../input/polish-deepspeech-models/kenlm_pl.scorer\r\n",
      "Loaded scorer in 0.00544s.\r\n",
      "Running inference.\r\n",
      "Inference took 668.193s for 833.123s audio file.\r\n",
      "Archive:  ../input/wolne-lektury-audio-zip/atlas-i-kitaj.zip\r\n",
      " extracting: ignacy-krasicki-bajki-i-przypowiesci-atlas-i-kitaj.mp3  \r\n",
      "ffmpeg version 4.3.1 Copyright (c) 2000-2020 the FFmpeg developers\r\n",
      "  built with gcc 9.3.0 (crosstool-NG 1.24.0.133_b0863d8_dirty)\r\n",
      "  configuration: --prefix=/opt/conda --cc=/home/conda/feedstock_root/build_artifacts/ffmpeg_1609680890771/_build_env/bin/x86_64-conda-linux-gnu-cc --disable-doc --disable-openssl --enable-avresample --enable-gnutls --enable-gpl --enable-hardcoded-tables --enable-libfreetype --enable-libopenh264 --enable-libx264 --enable-pic --enable-pthreads --enable-shared --enable-static --enable-version3 --enable-zlib --enable-libmp3lame --pkg-config=/home/conda/feedstock_root/build_artifacts/ffmpeg_1609680890771/_build_env/bin/pkg-config\r\n",
      "  libavutil      56. 51.100 / 56. 51.100\r\n",
      "  libavcodec     58. 91.100 / 58. 91.100\r\n",
      "  libavformat    58. 45.100 / 58. 45.100\r\n",
      "  libavdevice    58. 10.100 / 58. 10.100\r\n",
      "  libavfilter     7. 85.100 /  7. 85.100\r\n",
      "  libavresample   4.  0.  0 /  4.  0.  0\r\n",
      "  libswscale      5.  7.100 /  5.  7.100\r\n",
      "  libswresample   3.  7.100 /  3.  7.100\r\n",
      "  libpostproc    55.  7.100 / 55.  7.100\r\n",
      "\u001b[0;33mUnknown attached picture mimetype: ('image/png', None), skipping.\r\n",
      "\u001b[0m\u001b[0;35m[mp3 @ 0x564d6ced9f80] \u001b[0m\u001b[0;33mEstimating duration from bitrate, this may be inaccurate\r\n",
      "\u001b[0mInput #0, mp3, from 'ignacy-krasicki-bajki-i-przypowiesci-atlas-i-kitaj.mp3':\r\n",
      "  Metadata:\r\n",
      "    title           : Ignacy Krasicki, Bajki i przypowieści, Atłas i kitaj\r\n",
      "    artist          : Bartosz Mazur\r\n",
      "    album           : Wolne Lektury\r\n",
      "    date            : 2010\r\n",
      "    genre           : Speech\r\n",
      "    copyright       : 2010 Fundacja Nowoczesna Polska. Licensed to the public under http://creativecommons.org/licenses/by-sa/3.0/deed.pl verify at http://www.wolnelektury.pl/katalog/lektura/atlas-i-kitaj/\r\n",
      "    comment         : Audiobook nagrany w ramach projektu Remiksujemy bibliotekę.\r\n",
      "                    : \r\n",
      "                    : Przekaż 1% podatku na rozwój Wolnych Lektur:\r\n",
      "                    : Fundacja Nowoczesna Polska\r\n",
      "                    : KRS 0000070056\r\n",
      "                    : http://nowoczesnapolska.org.pl/wesprzyj_nas/\r\n",
      "                    : \r\n",
      "    publisher       : Fundacja Nowoczesna Polska\r\n",
      "    performer       : Marcin Cisło\r\n",
      "    album_artist    : Fundacja Nowoczesna Polska\r\n",
      "    encoder         : Lavf52.87.1\r\n",
      "    id3v2_priv.wolnelektury.pl?funded_by: \r\n",
      "    id3v2_priv.wolnelektury.pl?flac_sha1: 4631f80fb9c99fdff7b53212460b4f68c53c8b6f\r\n",
      "    id3v2_priv.wolnelektury.pl?project: Remiksujemy bibliotek\\xc4\\x99\r\n",
      "  Duration: 00:00:37.38, start: 0.000000, bitrate: 67 kb/s\r\n",
      "    Stream #0:0: Audio: mp3, 44100 Hz, mono, fltp, 64 kb/s\r\n",
      "Stream mapping:\r\n",
      "  Stream #0:0 -> #0:0 (mp3 (mp3float) -> pcm_s16le (native))\r\n",
      "Press [q] to stop, [?] for help\r\n",
      "Output #0, wav, to 'ignacy-krasicki-bajki-i-przypowiesci-atlas-i-kitaj.wav':\r\n",
      "  Metadata:\r\n",
      "    INAM            : Ignacy Krasicki, Bajki i przypowieści, Atłas i kitaj\r\n",
      "    IART            : Bartosz Mazur\r\n",
      "    IPRD            : Wolne Lektury\r\n",
      "    ICRD            : 2010\r\n",
      "    IGNR            : Speech\r\n",
      "    ICOP            : 2010 Fundacja Nowoczesna Polska. Licensed to the public under http://creativecommons.org/licenses/by-sa/3.0/deed.pl verify at http://www.wolnelektury.pl/katalog/lektura/atlas-i-kitaj/\r\n",
      "    ICMT            : Audiobook nagrany w ramach projektu Remiksujemy bibliotekę.\r\n",
      "                    : \r\n",
      "                    : Przekaż 1% podatku na rozwój Wolnych Lektur:\r\n",
      "                    : Fundacja Nowoczesna Polska\r\n",
      "                    : KRS 0000070056\r\n",
      "                    : http://nowoczesnapolska.org.pl/wesprzyj_nas/\r\n",
      "                    : \r\n",
      "    publisher       : Fundacja Nowoczesna Polska\r\n",
      "    performer       : Marcin Cisło\r\n",
      "    album_artist    : Fundacja Nowoczesna Polska\r\n",
      "    ILNG            : pol\r\n",
      "    id3v2_priv.wolnelektury.pl?project: Remiksujemy bibliotek\\xc4\\x99\r\n",
      "    id3v2_priv.wolnelektury.pl?funded_by: \r\n",
      "    id3v2_priv.wolnelektury.pl?flac_sha1: 4631f80fb9c99fdff7b53212460b4f68c53c8b6f\r\n",
      "    ISFT            : Lavf58.45.100\r\n",
      "    Stream #0:0: Audio: pcm_s16le ([1][0][0][0] / 0x0001), 16000 Hz, mono, s16, 256 kb/s\r\n",
      "    Metadata:\r\n",
      "      encoder         : Lavc58.91.100 pcm_s16le\r\n",
      "size=    1169kB time=00:00:37.38 bitrate= 256.1kbits/s speed= 723x    \r\n",
      "video:0kB audio:1168kB subtitle:0kB other streams:0kB global headers:0kB muxing overhead: 0.052332%\r\n",
      "Loading model from file ../input/polish-deepspeech-models/output_graph_pl.pbmm\r\n",
      "TensorFlow: v2.3.0-6-g23ad988\r\n",
      "DeepSpeech: v0.9.3-0-gf2e9c85\r\n",
      "2021-05-23 03:57:49.398554: I tensorflow/core/platform/cpu_feature_guard.cc:142] This TensorFlow binary is optimized with oneAPI Deep Neural Network Library (oneDNN)to use the following CPU instructions in performance-critical operations:  AVX2 FMA\r\n",
      "To enable them in other operations, rebuild TensorFlow with the appropriate compiler flags.\r\n",
      "Loaded model in 0.0166s.\r\n",
      "Loading scorer from files ../input/polish-deepspeech-models/kenlm_pl.scorer\r\n",
      "Loaded scorer in 0.00495s.\r\n",
      "Running inference.\r\n",
      "Inference took 25.054s for 37.381s audio file.\r\n"
     ]
    }
   ],
   "source": [
    "!for i in ../input/wolne-lektury-audio-zip/a*.zip; do unzip $i; for j in *.mp3; do base=$(basename \"$j\" \".mp3\"); out=\"$base.wav\"; ffmpeg -i $j -acodec pcm_s16le -ac 1 -ar 16000 $out; deepspeech --model ../input/polish-deepspeech-models/output_graph_pl.pbmm --scorer ../input/polish-deepspeech-models/kenlm_pl.scorer --json --audio $out > $base.json; rm $out $j; done; done"
   ]
  }
 ],
 "metadata": {
  "kernelspec": {
   "display_name": "Python 3",
   "language": "python",
   "name": "python3"
  },
  "language_info": {
   "codemirror_mode": {
    "name": "ipython",
    "version": 3
   },
   "file_extension": ".py",
   "mimetype": "text/x-python",
   "name": "python",
   "nbconvert_exporter": "python",
   "pygments_lexer": "ipython3",
   "version": "3.7.10"
  },
  "papermill": {
   "default_parameters": {},
   "duration": 8349.111611,
   "end_time": "2021-05-23T03:58:15.487655",
   "environment_variables": {},
   "exception": null,
   "input_path": "__notebook__.ipynb",
   "output_path": "__notebook__.ipynb",
   "parameters": {},
   "start_time": "2021-05-23T01:39:06.376044",
   "version": "2.3.3"
  }
 },
 "nbformat": 4,
 "nbformat_minor": 5
}
